<?xml version="1.0" standalone="no"?>
<!DOCTYPE svg PUBLIC "-//W3C//DTD SVG 20010904//EN"
 "http://www.w3.org/TR/2001/REC-SVG-20010904/DTD/svg10.dtd">
<svg version="1.0" xmlns="http://www.w3.org/2000/svg"
 width="300.000000pt" height="359.000000pt" viewBox="0 0 300.000000 359.000000"
 preserveAspectRatio="xMidYMid meet">
<metadata>
Created by potrace 1.10, written by Peter Selinger 2001-2011
</metadata>
<g transform="translate(0.000000,359.000000) scale(0.100000,-0.100000)"
fill="#000000" stroke="none">
<path d="M1313 3263 c-4 -10 -23 -45 -43 -78 -20 -33 -39 -67 -43 -75 -4 -8
-18 -33 -32 -55 -14 -22 -28 -47 -32 -55 -3 -8 -9 -17 -12 -20 -3 -3 -17 -27
-31 -55 -13 -27 -27 -52 -30 -55 -3 -3 -12 -19 -21 -35 -9 -17 -59 -104 -111
-195 -133 -229 -157 -271 -171 -300 -6 -14 -14 -27 -17 -30 -6 -5 -44 -71 -89
-155 -34 -64 -53 -96 -67 -115 -6 -8 -31 -51 -54 -95 -24 -44 -46 -82 -49 -85
-4 -3 -12 -18 -19 -33 -11 -25 -10 -32 6 -55 11 -15 39 -63 63 -107 23 -44 46
-82 49 -85 4 -3 15 -23 26 -45 10 -22 21 -42 25 -45 4 -3 15 -21 25 -41 45
-86 77 -144 83 -149 4 -3 12 -16 19 -30 7 -14 25 -47 41 -75 16 -27 50 -88 76
-135 27 -47 52 -86 57 -88 4 -2 8 -11 8 -20 0 -9 9 -28 20 -42 11 -14 20 -31
20 -37 0 -7 4 -13 8 -13 4 0 15 -15 23 -32 9 -18 35 -67 59 -108 23 -41 49
-86 57 -100 38 -67 63 -111 98 -170 21 -36 44 -77 52 -92 16 -32 38 -36 47
-10 3 9 14 31 24 47 11 17 29 48 42 70 56 100 75 130 82 133 4 2 8 10 8 18 0
15 25 59 47 82 7 7 13 17 13 22 0 13 72 134 82 138 4 2 8 10 8 17 0 14 38 86
51 95 3 3 10 20 14 37 3 18 11 33 16 33 5 0 9 6 9 14 0 10 -23 15 -92 18 -132
7 -208 51 -259 148 -34 66 -33 178 1 239 27 48 65 91 80 91 6 0 10 4 10 9 0
11 124 51 159 51 14 0 54 -9 89 -19 51 -16 72 -30 112 -71 27 -28 55 -67 62
-86 17 -49 40 -43 73 19 16 28 31 54 34 57 3 3 17 28 31 55 14 28 28 52 33 53
4 2 7 9 7 15 0 7 9 23 20 37 11 14 20 33 20 43 0 9 3 17 8 17 10 0 42 58 42
76 0 8 -11 32 -25 54 -14 22 -25 44 -25 50 0 5 -4 10 -10 10 -5 0 -10 6 -10
13 0 6 -9 23 -20 37 -11 14 -20 33 -20 42 0 9 -4 18 -8 20 -8 3 -48 69 -85
138 -18 34 -44 81 -99 175 -16 26 -28 51 -28 56 0 5 -3 9 -8 9 -4 0 -13 15
-21 33 -8 17 -17 34 -20 37 -3 3 -16 23 -27 45 -36 67 -77 140 -83 145 -3 3
-15 23 -27 45 -11 22 -39 72 -61 110 -22 39 -51 90 -65 115 -55 98 -158 276
-168 290 -6 8 -13 23 -16 33 -4 9 -13 17 -20 17 -8 0 -18 -8 -21 -17z m34 -70
c4 -10 9 -20 13 -23 4 -3 13 -18 22 -35 42 -81 111 -200 119 -203 5 -2 9 -12
9 -23 0 -10 5 -19 10 -19 6 0 10 -6 10 -14 0 -7 9 -25 20 -39 11 -14 20 -32
20 -40 0 -9 4 -17 8 -19 8 -3 35 -47 87 -143 15 -27 34 -57 41 -66 8 -8 14
-20 14 -26 0 -6 16 -34 35 -63 19 -29 35 -58 35 -66 0 -8 3 -14 8 -14 4 0 12
-10 18 -23 19 -38 73 -136 99 -177 14 -22 25 -44 25 -50 0 -5 3 -10 8 -10 4 0
15 -17 25 -37 10 -21 40 -76 67 -122 28 -46 50 -88 50 -92 0 -5 3 -9 8 -9 11
0 32 -51 32 -79 0 -15 -9 -37 -20 -51 -11 -14 -20 -31 -20 -37 0 -7 -4 -13
-10 -13 -5 0 -10 -7 -10 -16 0 -9 -9 -27 -20 -41 -11 -14 -20 -32 -20 -39 0
-8 -4 -14 -8 -14 -5 0 -21 -27 -37 -60 -30 -62 -49 -75 -60 -39 -13 39 -92
107 -151 129 -89 33 -133 35 -211 12 -82 -25 -141 -66 -174 -119 -12 -21 -27
-41 -32 -44 -4 -3 -13 -37 -19 -75 -12 -77 2 -173 28 -194 7 -7 14 -18 14 -25
0 -16 78 -87 115 -104 17 -7 38 -18 48 -23 11 -5 50 -12 88 -15 61 -5 85 -15
61 -25 -7 -3 -26 -33 -79 -128 -11 -19 -34 -59 -52 -88 -17 -29 -31 -55 -31
-58 0 -3 -16 -28 -35 -57 -19 -28 -35 -55 -35 -59 0 -4 -18 -37 -40 -73 -22
-36 -40 -67 -40 -69 0 -2 -11 -23 -24 -46 l-24 -43 -19 39 c-21 41 -53 98 -84
149 -11 17 -26 44 -34 60 -17 33 -37 67 -45 75 -3 3 -14 23 -26 45 -11 22 -31
58 -44 80 -12 22 -34 60 -48 85 -14 25 -33 57 -43 72 -11 14 -19 29 -19 32 0
2 -29 55 -65 117 -36 61 -65 115 -65 119 0 5 -3 10 -7 12 -5 2 -19 26 -33 53
-14 28 -28 52 -31 55 -7 7 -87 150 -137 245 -8 17 -18 32 -22 35 -4 3 -24 36
-45 74 l-37 70 28 55 c16 31 37 69 49 86 11 16 28 46 39 65 10 19 29 53 41 75
12 22 35 63 50 90 15 28 31 52 34 55 4 3 12 16 18 30 7 14 25 48 41 75 102
176 182 319 182 326 0 5 4 9 9 9 5 0 13 9 16 21 8 26 67 123 78 127 4 2 7 11
7 20 0 10 9 28 20 42 11 14 20 31 20 38 0 6 4 12 9 12 5 0 14 12 20 28 6 15
33 65 61 112 28 47 55 97 61 113 13 31 27 35 36 10z"/>
</g>
</svg>
